<mxfile host="app.diagrams.net" modified="2023-06-24T08:57:01.237Z" agent="Mozilla/5.0 (Macintosh; Intel Mac OS X 10_15_7) AppleWebKit/537.36 (KHTML, like Gecko) Chrome/114.0.0.0 Safari/537.36" etag="Omm_SphrqjEGlaMqGtvW" version="21.5.0" type="device">
  <diagram name="Page-1" id="zVtc_bFKCwbPdziVmUPY">
    <mxGraphModel dx="792" dy="1188" grid="1" gridSize="10" guides="1" tooltips="1" connect="1" arrows="1" fold="1" page="1" pageScale="1" pageWidth="827" pageHeight="1169" math="0" shadow="0">
      <root>
        <mxCell id="0" />
        <mxCell id="1" parent="0" />
        <mxCell id="tVs7E20gamggEVCHv12S-11" style="edgeStyle=orthogonalEdgeStyle;rounded=0;orthogonalLoop=1;jettySize=auto;html=1;exitX=0;exitY=0;exitDx=80;exitDy=0;exitPerimeter=0;entryX=0.706;entryY=1.011;entryDx=0;entryDy=0;entryPerimeter=0;" edge="1" parent="1" source="tVs7E20gamggEVCHv12S-1" target="tVs7E20gamggEVCHv12S-2">
          <mxGeometry relative="1" as="geometry">
            <Array as="points">
              <mxPoint x="390" y="450" />
            </Array>
          </mxGeometry>
        </mxCell>
        <mxCell id="tVs7E20gamggEVCHv12S-14" style="edgeStyle=orthogonalEdgeStyle;rounded=0;orthogonalLoop=1;jettySize=auto;html=1;entryX=1;entryY=0.75;entryDx=0;entryDy=0;" edge="1" parent="1" source="tVs7E20gamggEVCHv12S-1" target="tVs7E20gamggEVCHv12S-6">
          <mxGeometry relative="1" as="geometry">
            <Array as="points">
              <mxPoint x="250" y="368" />
            </Array>
          </mxGeometry>
        </mxCell>
        <mxCell id="tVs7E20gamggEVCHv12S-18" style="edgeStyle=orthogonalEdgeStyle;rounded=0;orthogonalLoop=1;jettySize=auto;html=1;entryX=1;entryY=0.75;entryDx=0;entryDy=0;" edge="1" parent="1" source="tVs7E20gamggEVCHv12S-1" target="tVs7E20gamggEVCHv12S-4">
          <mxGeometry relative="1" as="geometry">
            <Array as="points">
              <mxPoint x="250" y="488" />
            </Array>
          </mxGeometry>
        </mxCell>
        <mxCell id="tVs7E20gamggEVCHv12S-1" value="&lt;font style=&quot;font-size: 14px;&quot;&gt;Server&amp;nbsp;&lt;br&gt;&lt;br&gt;AWS&lt;/font&gt;" style="verticalAlign=top;align=center;spacingTop=8;spacingLeft=2;spacingRight=12;shape=cube;size=10;direction=south;fontStyle=4;html=1;whiteSpace=wrap;fillColor=#dae8fc;strokeColor=#6c8ebf;" vertex="1" parent="1">
          <mxGeometry x="300" y="330" width="90" height="170" as="geometry" />
        </mxCell>
        <mxCell id="tVs7E20gamggEVCHv12S-10" style="edgeStyle=orthogonalEdgeStyle;rounded=0;orthogonalLoop=1;jettySize=auto;html=1;entryX=0.359;entryY=-0.011;entryDx=0;entryDy=0;entryPerimeter=0;" edge="1" parent="1" source="tVs7E20gamggEVCHv12S-2" target="tVs7E20gamggEVCHv12S-1">
          <mxGeometry relative="1" as="geometry">
            <Array as="points">
              <mxPoint x="500" y="391" />
              <mxPoint x="500" y="391" />
            </Array>
          </mxGeometry>
        </mxCell>
        <mxCell id="tVs7E20gamggEVCHv12S-2" value="&lt;font style=&quot;font-size: 14px;&quot;&gt;Client&amp;nbsp;&lt;br&gt;&lt;br&gt;Ruppin&lt;br&gt;Server&lt;/font&gt;" style="verticalAlign=top;align=center;spacingTop=8;spacingLeft=2;spacingRight=12;shape=cube;size=10;direction=south;fontStyle=4;html=1;whiteSpace=wrap;fillColor=#d5e8d4;strokeColor=#82b366;" vertex="1" parent="1">
          <mxGeometry x="534" y="330" width="90" height="170" as="geometry" />
        </mxCell>
        <mxCell id="tVs7E20gamggEVCHv12S-17" style="edgeStyle=orthogonalEdgeStyle;rounded=0;orthogonalLoop=1;jettySize=auto;html=1;exitX=1;exitY=0.25;exitDx=0;exitDy=0;entryX=0.776;entryY=1.033;entryDx=0;entryDy=0;entryPerimeter=0;" edge="1" parent="1" source="tVs7E20gamggEVCHv12S-4" target="tVs7E20gamggEVCHv12S-1">
          <mxGeometry relative="1" as="geometry" />
        </mxCell>
        <mxCell id="tVs7E20gamggEVCHv12S-4" value="«Spy Model»&lt;br style=&quot;font-size: 14px;&quot;&gt;&lt;b style=&quot;--tw-border-spacing-x: 0; --tw-border-spacing-y: 0; --tw-translate-x: 0; --tw-translate-y: 0; --tw-rotate: 0; --tw-skew-x: 0; --tw-skew-y: 0; --tw-scale-x: 1; --tw-scale-y: 1; --tw-pan-x: ; --tw-pan-y: ; --tw-pinch-zoom: ; --tw-scroll-snap-strictness: proximity; --tw-ordinal: ; --tw-slashed-zero: ; --tw-numeric-figure: ; --tw-numeric-spacing: ; --tw-numeric-fraction: ; --tw-ring-inset: ; --tw-ring-offset-width: 0px; --tw-ring-offset-color: #fff; --tw-ring-color: rgb(59 130 246 / 0.5); --tw-ring-offset-shadow: 0 0 #0000; --tw-ring-shadow: 0 0 #0000; --tw-shadow: 0 0 #0000; --tw-shadow-colored: 0 0 #0000; --tw-blur: ; --tw-brightness: ; --tw-contrast: ; --tw-grayscale: ; --tw-hue-rotate: ; --tw-invert: ; --tw-saturate: ; --tw-sepia: ; --tw-drop-shadow: ; --tw-backdrop-blur: ; --tw-backdrop-brightness: ; --tw-backdrop-contrast: ; --tw-backdrop-grayscale: ; --tw-backdrop-hue-rotate: ; --tw-backdrop-invert: ; --tw-backdrop-opacity: ; --tw-backdrop-saturate: ; --tw-backdrop-sepia: ; border-color: var(--border-color); font-size: 14px;&quot;&gt;Predict&lt;/b&gt;" style="html=1;whiteSpace=wrap;fillColor=#ffe6cc;strokeColor=#d79b00;fontSize=14;" vertex="1" parent="1">
          <mxGeometry x="80" y="450" width="120" height="50" as="geometry" />
        </mxCell>
        <mxCell id="tVs7E20gamggEVCHv12S-13" style="edgeStyle=orthogonalEdgeStyle;rounded=0;orthogonalLoop=1;jettySize=auto;html=1;exitX=1;exitY=0.25;exitDx=0;exitDy=0;" edge="1" parent="1" source="tVs7E20gamggEVCHv12S-6">
          <mxGeometry relative="1" as="geometry">
            <mxPoint x="300" y="343" as="targetPoint" />
            <Array as="points">
              <mxPoint x="300" y="343" />
            </Array>
          </mxGeometry>
        </mxCell>
        <mxCell id="tVs7E20gamggEVCHv12S-6" value="«Agents Model»&lt;br style=&quot;font-size: 14px;&quot;&gt;&lt;b style=&quot;font-size: 14px;&quot;&gt;Predict&lt;/b&gt;" style="html=1;whiteSpace=wrap;fillColor=#ffe6cc;strokeColor=#d79b00;fontSize=14;" vertex="1" parent="1">
          <mxGeometry x="80" y="330" width="120" height="50" as="geometry" />
        </mxCell>
        <mxCell id="tVs7E20gamggEVCHv12S-9" value="&lt;font style=&quot;font-size: 14px;&quot;&gt;Post request&amp;nbsp;&lt;br&gt;(Observation)&lt;/font&gt;" style="text;html=1;strokeColor=none;fillColor=none;align=center;verticalAlign=middle;whiteSpace=wrap;rounded=0;" vertex="1" parent="1">
          <mxGeometry x="380" y="354" width="160" height="30" as="geometry" />
        </mxCell>
        <mxCell id="tVs7E20gamggEVCHv12S-12" value="&lt;font style=&quot;font-size: 14px;&quot;&gt;Post response&amp;nbsp;&lt;br&gt;(Action/Actions)&lt;/font&gt;" style="text;html=1;strokeColor=none;fillColor=none;align=center;verticalAlign=middle;whiteSpace=wrap;rounded=0;" vertex="1" parent="1">
          <mxGeometry x="380" y="460" width="160" height="30" as="geometry" />
        </mxCell>
        <mxCell id="tVs7E20gamggEVCHv12S-15" value="Actions" style="text;html=1;strokeColor=none;fillColor=none;align=center;verticalAlign=middle;whiteSpace=wrap;rounded=0;fontSize=14;" vertex="1" parent="1">
          <mxGeometry x="220" y="319" width="60" height="30" as="geometry" />
        </mxCell>
        <mxCell id="tVs7E20gamggEVCHv12S-16" value="Observation" style="text;html=1;strokeColor=none;fillColor=none;align=center;verticalAlign=middle;whiteSpace=wrap;rounded=0;fontSize=14;" vertex="1" parent="1">
          <mxGeometry x="220" y="370" width="60" height="30" as="geometry" />
        </mxCell>
        <mxCell id="tVs7E20gamggEVCHv12S-19" value="Observation" style="text;html=1;strokeColor=none;fillColor=none;align=center;verticalAlign=middle;whiteSpace=wrap;rounded=0;fontSize=14;" vertex="1" parent="1">
          <mxGeometry x="220" y="490" width="60" height="30" as="geometry" />
        </mxCell>
        <mxCell id="tVs7E20gamggEVCHv12S-20" value="Action" style="text;html=1;strokeColor=none;fillColor=none;align=center;verticalAlign=middle;whiteSpace=wrap;rounded=0;fontSize=14;" vertex="1" parent="1">
          <mxGeometry x="220" y="431" width="60" height="30" as="geometry" />
        </mxCell>
      </root>
    </mxGraphModel>
  </diagram>
</mxfile>
